<svg width="27" height="32" xmlns="http://www.w3.org/2000/svg">
 <g>
  <title>background</title>
  <rect x="-1" y="-1" width="2.830707" height="2.984541" id="canvas_background" fill="none"/>
 </g>

 <g>
  <title>Layer 1</title>
  <rect stroke="null" id="svg_2" height="16.630345" width="18.630988" y="4.433783" x="4.434587" stroke-opacity="null" stroke-width="null" fill="#ffffff"/>
  <path fill="#E42217" d="m22.608753,21.054778l0,-1.342206q0,-2.049107 -3.108704,-3.355893t-5.934798,-1.306786t-5.934798,1.306786t-3.108704,3.355893l0,1.342206l18.087003,0l0.000001,0zm-9.043501,-16.108737q-1.695656,0 -2.896935,1.201278t-1.201278,2.896935t1.201278,2.861515t2.896935,1.165858t2.896935,-1.165858t1.201278,-2.861515t-1.201278,-2.896935t-2.896935,-1.201278zm10.527389,-4.946042q1.201278,0 2.119947,0.883249t0.918669,2.084527l0,21.124865q0,1.201278 -0.918669,2.119947t-2.119947,0.918669l-6.005638,0l-4.521751,4.521751l-4.521751,-4.521751l-6.005638,0q-1.272119,0 -2.154614,-0.918669t-0.883249,-2.119947l0,-21.124865q0,-1.201278 0.883249,-2.084527t2.154614,-0.883249l21.054778,0z" id="svg_1" stroke="null"/>
 </g>
</svg>